# xmcd
#
# Track frame offsets:
#	150
#	15225
#	32404
#	48593
#	63397
#	74453
#	86814
#	100570
#	113178
#	124434
#	138995
#	154951
#	171550
#	184616
#	200615
#	215980
#	228100
#	241887
#	255862
#	267659
#	277209
#	292429
#	303881
#	316842
#	331648
#	343553
#
# Disc length: 4740 seconds
#
# Revision: 1
# Processed by: cddbd v1.5.2PL0 Copyright (c) Steve Scherf et al.
# Submitted via: audiograbber 1.83.01
#
DISCID=8712821a
DTITLE=George Jones - My Collection Of Hits CD1
DYEAR=1900
DGENRE=Country
TTITLE0=No Show Jones (& Alan Jackson intro)
TTITLE1=Bartenders Blue
TTITLE2=I Was Country When Country Wasn't Cool (& Barbara Mandrell)
TTITLE3=He Stopped Loving
TTITLE4=High Tech Redneck
TTITLE5=Hello Darlin'
TTITLE6=I'm Not ready Yet
TTITLE7=Talking To Hank (& Mark Chesnutt)
TTITLE8=The Corvette Song
TTITLE9=If the Drinking don't kill me
TTITLE10=I Don't Need Your Rockin' Chair
TTITLE11=A Few Ol' Country Boys (& Randy Travis)
TTITLE12=It Don't Get Any Better Than This (& Waylon Jennings)
TTITLE13=Hell Stays Open All  Night
TTITLE14=Shine on
TTITLE15=Crying Time (& Tammy Wynette)
TTITLE16=These days (I barely get by)
TTITLE17=Come Sundown (& Conway Twitty)
TTITLE18=White Lightnin'
TTITLE19=My Collection of Hits - Disk 1 - 20 - The Race is On
TTITLE20=The King Is Gone [So Are You]
TTITLE21=Solid as a Rock (& Tammy Wynette)
TTITLE22=Still Doin' Time
TTITLE23=Who's Gonna Fill Their Shoes
TTITLE24=Heartaches By The Number
TTITLE25=I Don't Care If Tomorrow Never Comes (& Hank Williams Jr)
EXTD=
EXTT0=
EXTT1=
EXTT2=
EXTT3=
EXTT4=
EXTT5=
EXTT6=
EXTT7=
EXTT8=
EXTT9=
EXTT10=
EXTT11=
EXTT12=
EXTT13=
EXTT14=
EXTT15=
EXTT16=
EXTT17=
EXTT18=
EXTT19=
EXTT20=
EXTT21=
EXTT22=
EXTT23=
EXTT24=
EXTT25=
PLAYORDER=
